  0
SECTION
  2
HEADER
  9
$ACADVER
  1
AC1009
  9
$INSBASE
 10
0.0
 20
0.0
 30
0.0
  9
$EXTMIN
 10
-0.1000000000000014
 20
-0.1000000000000014
 30
0.0
  9
$EXTMAX
 10
189.15921258055931
 20
112.7
 30
0.0
  9
$LIMMIN
 10
0.0
 20
0.0
  9
$LIMMAX
 10
420.0
 20
297.0
  9
$ORTHOMODE
 70
     0
  9
$REGENMODE
 70
     1
  9
$FILLMODE
 70
     1
  9
$QTEXTMODE
 70
     0
  9
$MIRRTEXT
 70
     0
  9
$DRAGMODE
 70
     2
  9
$LTSCALE
 40
1.0
  9
$OSMODE
 70
  1343
  9
$ATTMODE
 70
     1
  9
$TEXTSIZE
 40
2.5
  9
$TRACEWID
 40
1.0
  9
$TEXTSTYLE
  7
STANDARD
  9
$CLAYER
  8
0
  9
$CELTYPE
  6
BYLAYER
  9
$CECOLOR
 62
   256
  9
$DIMSCALE
 40
1.0
  9
$DIMASZ
 40
2.5
  9
$DIMEXO
 40
0.625
  9
$DIMDLI
 40
3.75
  9
$DIMRND
 40
0.0
  9
$DIMDLE
 40
0.0
  9
$DIMEXE
 40
1.25
  9
$DIMTP
 40
0.0
  9
$DIMTM
 40
0.0
  9
$DIMTXT
 40
2.5
  9
$DIMCEN
 40
2.5
  9
$DIMTSZ
 40
0.0
  9
$DIMTOL
 70
     0
  9
$DIMLIM
 70
     0
  9
$DIMTIH
 70
     0
  9
$DIMTOH
 70
     0
  9
$DIMSE1
 70
     0
  9
$DIMSE2
 70
     0
  9
$DIMTAD
 70
     1
  9
$DIMZIN
 70
     8
  9
$DIMBLK
  1

  9
$DIMASO
 70
     1
  9
$DIMSHO
 70
     1
  9
$DIMPOST
  1

  9
$DIMAPOST
  1

  9
$DIMALT
 70
     0
  9
$DIMALTD
 70
     3
  9
$DIMALTF
 40
0.03937007874016
  9
$DIMLFAC
 40
1.0
  9
$DIMTOFL
 70
     1
  9
$DIMTVP
 40
0.0
  9
$DIMTIX
 70
     0
  9
$DIMSOXD
 70
     0
  9
$DIMSAH
 70
     0
  9
$DIMBLK1
  1

  9
$DIMBLK2
  1

  9
$DIMSTYLE
  2
ISO-25
  9
$DIMCLRD
 70
     0
  9
$DIMCLRE
 70
     0
  9
$DIMCLRT
 70
     0
  9
$DIMTFAC
 40
1.0
  9
$DIMGAP
 40
0.625
  9
$LUNITS
 70
     2
  9
$LUPREC
 70
     4
  9
$SKETCHINC
 40
1.0
  9
$FILLETRAD
 40
0.0
  9
$AUNITS
 70
     0
  9
$AUPREC
 70
     0
  9
$MENU
  1
.
  9
$ELEVATION
 40
0.0
  9
$PELEVATION
 40
0.0
  9
$THICKNESS
 40
0.0
  9
$LIMCHECK
 70
     0
  9
$BLIPMODE
 70
     0
  9
$CHAMFERA
 40
0.0
  9
$CHAMFERB
 40
0.0
  9
$SKPOLY
 70
     0
  9
$TDCREATE
 40
2458364.5176059259
  9
$TDUPDATE
 40
2458364.5374160302
  9
$TDINDWG
 40
0.0198113889
  9
$TDUSRTIMER
 40
0.0198112616
  9
$USRTIMER
 70
     1
  9
$ANGBASE
 50
0.0
  9
$ANGDIR
 70
     0
  9
$PDMODE
 70
     0
  9
$PDSIZE
 40
0.0
  9
$PLINEWID
 40
0.0
  9
$COORDS
 70
     1
  9
$SPLFRAME
 70
     0
  9
$SPLINETYPE
 70
     6
  9
$SPLINESEGS
 70
     8
  9
$ATTDIA
 70
     1
  9
$ATTREQ
 70
     1
  9
$HANDLING
 70
     1
  9
$HANDSEED
  5
4F7
  9
$SURFTAB1
 70
     6
  9
$SURFTAB2
 70
     6
  9
$SURFTYPE
 70
     6
  9
$SURFU
 70
     6
  9
$SURFV
 70
     6
  9
$UCSNAME
  2

  9
$UCSORG
 10
0.0
 20
0.0
 30
0.0
  9
$UCSXDIR
 10
1.0
 20
0.0
 30
0.0
  9
$UCSYDIR
 10
0.0
 20
1.0
 30
0.0
  9
$PUCSNAME
  2

  9
$PUCSORG
 10
0.0
 20
0.0
 30
0.0
  9
$PUCSXDIR
 10
1.0
 20
0.0
 30
0.0
  9
$PUCSYDIR
 10
0.0
 20
1.0
 30
0.0
  9
$USERI1
 70
     0
  9
$USERI2
 70
     0
  9
$USERI3
 70
     0
  9
$USERI4
 70
     0
  9
$USERI5
 70
     0
  9
$USERR1
 40
0.0
  9
$USERR2
 40
0.0
  9
$USERR3
 40
0.0
  9
$USERR4
 40
0.0
  9
$USERR5
 40
0.0
  9
$WORLDVIEW
 70
     1
  9
$SHADEDGE
 70
     3
  9
$SHADEDIF
 70
    70
  9
$TILEMODE
 70
     1
  9
$MAXACTVP
 70
    64
  9
$PLIMCHECK
 70
     0
  9
$PEXTMIN
 10
0.0
 20
0.0
 30
0.0
  9
$PEXTMAX
 10
0.0
 20
0.0
 30
0.0
  9
$PLIMMIN
 10
0.0
 20
0.0
  9
$PLIMMAX
 10
12.0
 20
9.0
  9
$UNITMODE
 70
     0
  9
$VISRETAIN
 70
     1
  9
$PLINEGEN
 70
     0
  9
$PSLTSCALE
 70
     1
  0
ENDSEC
  0
SECTION
  2
TABLES
  0
TABLE
  2
VPORT
 70
     1
  0
VPORT
  2
*ACTIVE
 70
     0
 10
0.0
 20
0.0
 11
1.0
 21
1.0
 12
42.781501578752277
 22
68.183733629791277
 13
0.0
 23
0.0
 14
10.0
 24
10.0
 15
10.0
 25
10.0
 16
0.0
 26
0.0
 36
1.0
 17
0.0
 27
0.0
 37
0.0
 40
139.85571709665231
 41
2.6439267886855231
 42
50.0
 43
0.0
 44
0.0
 50
0.0
 51
0.0
 71
     0
 72
  1000
 73
     1
 74
     3
 75
     1
 76
     1
 77
     0
 78
     0
  0
ENDTAB
  0
TABLE
  2
LTYPE
 70
     2
  0
LTYPE
  2
CONTINUOUS
 70
     0
  3
Solid line
 72
    65
 73
     0
 40
0.0
  0
ENDTAB
  0
TABLE
  2
LAYER
 70
     1
  0
LAYER
  2
0
 70
     0
 62
     7
  6
CONTINUOUS
  0
ENDTAB
  0
TABLE
  2
STYLE
 70
     2
  0
STYLE
  2
STANDARD
 70
     0
 40
0.0
 41
1.0
 50
0.0
 71
     0
 42
2.5
  3
txt
  4

  0
STYLE
  2
ANNOTATIVE
 70
     0
 40
0.0
 41
1.0
 50
0.0
 71
     0
 42
2.5
  3
txt
  4

  0
ENDTAB
  0
TABLE
  2
VIEW
 70
     0
  0
ENDTAB
  0
TABLE
  2
UCS
 70
     0
  0
ENDTAB
  0
TABLE
  2
APPID
 70
     9
  0
APPID
  2
ACAD
 70
     0
  0
APPID
  2
ACAD_PSEXT
 70
     0
  0
APPID
  2
ACADANNOPO
 70
     0
  0
APPID
  2
ACADANNOTATIVE
 70
     0
  0
APPID
  2
ACAD_DSTYLE_DIMJAG
 70
     0
  0
APPID
  2
ACAD_DSTYLE_DIMTALN
 70
     0
  0
APPID
  2
ACAD_MLEADERVER
 70
     0
  0
APPID
  2
ACAD_NAV_VCDISPLAY
 70
     0
  0
APPID
  2
ACAD_EXEMPT_FROM_CAD_STANDARDS
 70
     0
  0
ENDTAB
  0
TABLE
  2
DIMSTYLE
 70
     4
  0
DIMSTYLE
  2
STANDARD
 70
     0
  3

  4

  5

  6

  7

 40
1.0
 41
0.18
 42
0.0625
 43
0.38
 44
0.18
 45
0.0
 46
0.0
 47
0.0
 48
0.0
140
0.18
141
0.09
142
0.0
143
25.399999999999999
144
1.0
145
0.0
146
1.0
147
0.09
 71
     0
 72
     0
 73
     1
 74
     1
 75
     0
 76
     0
 77
     0
 78
     0
170
     0
171
     2
172
     0
173
     0
174
     0
175
     0
176
     0
177
     0
178
     0
  0
DIMSTYLE
  2
ANNOTATIVE
 70
     0
  3

  4

  5

  6

  7

 40
0.0
 41
2.5
 42
0.625
 43
3.75
 44
1.25
 45
0.0
 46
0.0
 47
0.0
 48
0.0
140
2.5
141
2.5
142
0.0
143
0.03937007874016
144
1.0
145
0.0
146
1.0
147
0.625
 71
     0
 72
     0
 73
     0
 74
     0
 75
     0
 76
     0
 77
     1
 78
     8
170
     0
171
     3
172
     1
173
     0
174
     0
175
     0
176
     0
177
     0
178
     0
  0
DIMSTYLE
  2
ISO-25
 70
     0
  3

  4

  5

  6

  7

 40
1.0
 41
2.5
 42
0.625
 43
3.75
 44
1.25
 45
0.0
 46
0.0
 47
0.0
 48
0.0
140
2.5
141
2.5
142
0.0
143
0.03937007874016
144
1.0
145
0.0
146
1.0
147
0.625
 71
     0
 72
     0
 73
     0
 74
     0
 75
     0
 76
     0
 77
     1
 78
     8
170
     0
171
     3
172
     1
173
     0
174
     0
175
     0
176
     0
177
     0
178
     0
  0
ENDTAB
  0
ENDSEC
  0
SECTION
  2
BLOCKS
  0
BLOCK
  8
0
  2
$MODEL_SPACE
 70
     0
 10
0.0
 20
0.0
 30
0.0
  3
$MODEL_SPACE
  1

  0
ENDBLK
  5
21
  8
0
  0
BLOCK
 67
     1
  8
0
  2
$PAPER_SPACE
 70
     0
 10
0.0
 20
0.0
 30
0.0
  3
$PAPER_SPACE
  1

  0
ENDBLK
  5
D5
 67
     1
  8
0
  0
ENDSEC
  0
SECTION
  2
ENTITIES
  0
CIRCLE
  5
277
  8
0
 10
5.0
 20
24.0
 30
0.0
 40
1.2999999999999989
  0
CIRCLE
  5
27B
  8
0
 10
5.0
 20
4.0
 30
0.0
 40
1.2999999999999989
  0
CIRCLE
  5
27C
  8
0
 10
50.0
 20
25.5
 30
0.0
 40
1.2999999999999989
  0
CIRCLE
  5
27D
  8
0
 10
55.0
 20
25.5
 30
0.0
 40
1.2999999999999989
  0
CIRCLE
  5
27E
  8
0
 10
50.0
 20
2.5
 30
0.0
 40
1.2999999999999989
  0
CIRCLE
  5
27F
  8
0
 10
55.0
 20
2.5
 30
0.0
 40
1.2999999999999989
  0
POLYLINE
  5
283
  8
0
 66
     1
 10
0.0
 20
0.0
 30
0.0
  0
VERTEX
  5
4D3
  8
0
 10
-0.1000000000000014
 20
28.100000000000001
 30
0.0
  0
VERTEX
  5
4D4
  8
0
 10
-0.1
 20
-0.1000000000000014
 30
0.0
  0
VERTEX
  5
4D5
  8
0
 10
60.100000000000001
 20
-0.1
 30
0.0
  0
VERTEX
  5
4D6
  8
0
 10
60.100000000000001
 20
28.100000000000001
 30
0.0
  0
SEQEND
  5
4D7
  8
0
  0
CIRCLE
  5
284
  8
0
 10
5.0
 20
52.200000000000003
 30
0.0
 40
1.2999999999999989
  0
CIRCLE
  5
285
  8
0
 10
5.0
 20
32.20000000000001
 30
0.0
 40
1.2999999999999989
  0
CIRCLE
  5
286
  8
0
 10
50.0
 20
53.700000000000003
 30
0.0
 40
1.2999999999999989
  0
CIRCLE
  5
287
  8
0
 10
55.0
 20
53.700000000000003
 30
0.0
 40
1.2999999999999989
  0
CIRCLE
  5
288
  8
0
 10
50.0
 20
30.699999999999999
 30
0.0
 40
1.2999999999999989
  0
CIRCLE
  5
289
  8
0
 10
55.0
 20
30.699999999999999
 30
0.0
 40
1.2999999999999989
  0
POLYLINE
  5
28A
  8
0
 66
     1
 10
0.0
 20
0.0
 30
0.0
  0
VERTEX
  5
4D8
  8
0
 10
-0.1000000000000014
 20
56.299999999999997
 30
0.0
  0
VERTEX
  5
4D9
  8
0
 10
-0.1
 20
28.100000000000001
 30
0.0
  0
VERTEX
  5
4DA
  8
0
 10
60.100000000000001
 20
28.100000000000001
 30
0.0
  0
VERTEX
  5
4DB
  8
0
 10
60.100000000000001
 20
56.299999999999997
 30
0.0
  0
SEQEND
  5
4DC
  8
0
  0
CIRCLE
  5
28B
  8
0
 10
5.0
 20
80.400000000000006
 30
0.0
 40
1.2999999999999989
  0
CIRCLE
  5
28C
  8
0
 10
5.0
 20
60.399999999999999
 30
0.0
 40
1.2999999999999989
  0
CIRCLE
  5
28D
  8
0
 10
50.0
 20
81.900000000000006
 30
0.0
 40
1.2999999999999989
  0
CIRCLE
  5
28E
  8
0
 10
55.0
 20
81.900000000000006
 30
0.0
 40
1.2999999999999989
  0
CIRCLE
  5
28F
  8
0
 10
50.0
 20
58.899999999999999
 30
0.0
 40
1.2999999999999989
  0
CIRCLE
  5
290
  8
0
 10
55.0
 20
58.899999999999999
 30
0.0
 40
1.2999999999999989
  0
POLYLINE
  5
291
  8
0
 66
     1
 10
0.0
 20
0.0
 30
0.0
  0
VERTEX
  5
4DD
  8
0
 10
-0.1000000000000014
 20
84.500000000000014
 30
0.0
  0
VERTEX
  5
4DE
  8
0
 10
-0.1
 20
56.299999999999997
 30
0.0
  0
VERTEX
  5
4DF
  8
0
 10
60.100000000000001
 20
56.299999999999997
 30
0.0
  0
VERTEX
  5
4E0
  8
0
 10
60.100000000000001
 20
84.500000000000014
 30
0.0
  0
SEQEND
  5
4E1
  8
0
  0
CIRCLE
  5
292
  8
0
 10
5.0
 20
108.59999999999999
 30
0.0
 40
1.2999999999999989
  0
CIRCLE
  5
293
  8
0
 10
5.0
 20
88.599999999999994
 30
0.0
 40
1.2999999999999989
  0
CIRCLE
  5
294
  8
0
 10
50.0
 20
110.09999999999999
 30
0.0
 40
1.2999999999999989
  0
CIRCLE
  5
295
  8
0
 10
55.0
 20
110.09999999999999
 30
0.0
 40
1.2999999999999989
  0
CIRCLE
  5
296
  8
0
 10
50.0
 20
87.099999999999994
 30
0.0
 40
1.2999999999999989
  0
CIRCLE
  5
297
  8
0
 10
55.0
 20
87.099999999999994
 30
0.0
 40
1.2999999999999989
  0
POLYLINE
  5
298
  8
0
 66
     1
 10
0.0
 20
0.0
 30
0.0
  0
VERTEX
  5
4E2
  8
0
 10
-0.1000000000000014
 20
112.7
 30
0.0
  0
VERTEX
  5
4E3
  8
0
 10
-0.1
 20
84.500000000000014
 30
0.0
  0
VERTEX
  5
4E4
  8
0
 10
60.100000000000001
 20
84.500000000000014
 30
0.0
  0
VERTEX
  5
4E5
  8
0
 10
60.100000000000001
 20
112.7
 30
0.0
  0
SEQEND
  5
4E6
  8
0
  0
LINE
  5
299
  8
0
 10
-0.1000000000000014
 20
112.7
 30
0.0
 11
60.100000000000001
 21
112.7
 31
0.0
  0
LINE
  5
2AA
  8
0
 10
60.100000000000001
 20
112.7
 30
0.0
 11
75.099999999999994
 21
112.7
 31
0.0
  0
LINE
  5
2AB
  8
0
 10
75.099999999999994
 20
112.7
 30
0.0
 11
75.099999999999994
 21
-0.0043083512755402
 31
0.0
  0
LINE
  5
2AC
  8
0
 10
75.099999999999994
 20
-0.0043083512755402
 30
0.0
 11
60.100000000000001
 21
-0.1
 31
0.0
  0
LINE
  5
2AE
  8
0
 10
60.100000000000001
 20
84.500000000000014
 30
0.0
 11
75.099999999999994
 21
84.500000000000014
 31
0.0
  0
LINE
  5
2AF
  8
0
 10
60.100000000000001
 20
56.299999999999997
 30
0.0
 11
75.099999999999994
 21
56.299999999999997
 31
0.0
  0
LINE
  5
2B0
  8
0
 10
60.100000000000001
 20
28.100000000000001
 30
0.0
 11
75.099999999999994
 21
28.100000000000001
 31
0.0
  0
LINE
  5
2C1
  8
0
 10
75.099999999999994
 20
112.7
 30
0.0
 11
90.099999999999994
 21
112.7
 31
0.0
  0
LINE
  5
2C2
  8
0
 10
90.099999999999994
 20
112.7
 30
0.0
 11
90.099999999999994
 21
-0.0043083512755402
 31
0.0
  0
LINE
  5
2C3
  8
0
 10
90.099999999999994
 20
-0.0043083512755402
 30
0.0
 11
75.099999999999994
 21
-0.1
 31
0.0
  0
LINE
  5
2C4
  8
0
 10
75.099999999999994
 20
84.500000000000014
 30
0.0
 11
90.099999999999994
 21
84.500000000000014
 31
0.0
  0
LINE
  5
2C5
  8
0
 10
75.099999999999994
 20
56.299999999999997
 30
0.0
 11
90.099999999999994
 21
56.299999999999997
 31
0.0
  0
LINE
  5
2C6
  8
0
 10
75.099999999999994
 20
28.100000000000001
 30
0.0
 11
90.099999999999994
 21
28.100000000000001
 31
0.0
  0
CIRCLE
  5
2C7
  8
0
 10
95.199999999999989
 20
24.0
 30
0.0
 40
1.2999999999999989
  0
CIRCLE
  5
2C8
  8
0
 10
95.199999999999989
 20
4.0
 30
0.0
 40
1.2999999999999989
  0
CIRCLE
  5
2C9
  8
0
 10
160.19999999999999
 20
25.5
 30
0.0
 40
1.2999999999999989
  0
CIRCLE
  5
2CA
  8
0
 10
165.19999999999999
 20
25.5
 30
0.0
 40
1.2999999999999989
  0
CIRCLE
  5
2CB
  8
0
 10
160.19999999999999
 20
2.5
 30
0.0
 40
1.2999999999999989
  0
CIRCLE
  5
2CC
  8
0
 10
165.19999999999999
 20
2.5
 30
0.0
 40
1.2999999999999989
  0
POLYLINE
  5
2CD
  8
0
 66
     1
 10
0.0
 20
0.0
 30
0.0
  0
VERTEX
  5
4E7
  8
0
 10
110.09999999999999
 20
-0.1000000000000014
 30
0.0
  0
VERTEX
  5
4E8
  8
0
 10
170.30000000000001
 20
-0.1
 30
0.0
  0
VERTEX
  5
4E9
  8
0
 10
170.30000000000001
 20
28.100000000000001
 30
0.0
  0
SEQEND
  5
4EA
  8
0
  0
CIRCLE
  5
2CE
  8
0
 10
95.199999999999989
 20
52.200000000000003
 30
0.0
 40
1.2999999999999989
  0
CIRCLE
  5
2CF
  8
0
 10
95.199999999999989
 20
32.20000000000001
 30
0.0
 40
1.2999999999999989
  0
CIRCLE
  5
2D0
  8
0
 10
160.19999999999999
 20
53.700000000000003
 30
0.0
 40
1.2999999999999989
  0
CIRCLE
  5
2D1
  8
0
 10
165.19999999999999
 20
53.700000000000003
 30
0.0
 40
1.2999999999999989
  0
CIRCLE
  5
2D2
  8
0
 10
160.19999999999999
 20
30.699999999999999
 30
0.0
 40
1.2999999999999989
  0
CIRCLE
  5
2D3
  8
0
 10
165.19999999999999
 20
30.699999999999999
 30
0.0
 40
1.2999999999999989
  0
POLYLINE
  5
2D4
  8
0
 66
     1
 10
0.0
 20
0.0
 30
0.0
  0
VERTEX
  5
4EB
  8
0
 10
110.09999999999999
 20
28.100000000000001
 30
0.0
  0
VERTEX
  5
4EC
  8
0
 10
170.30000000000001
 20
28.100000000000001
 30
0.0
  0
VERTEX
  5
4ED
  8
0
 10
170.30000000000001
 20
56.299999999999997
 30
0.0
  0
SEQEND
  5
4EE
  8
0
  0
CIRCLE
  5
2D5
  8
0
 10
95.199999999999989
 20
80.400000000000006
 30
0.0
 40
1.2999999999999989
  0
CIRCLE
  5
2D6
  8
0
 10
95.199999999999989
 20
60.399999999999999
 30
0.0
 40
1.2999999999999989
  0
CIRCLE
  5
2D7
  8
0
 10
160.19999999999999
 20
81.900000000000006
 30
0.0
 40
1.2999999999999989
  0
CIRCLE
  5
2D8
  8
0
 10
165.19999999999999
 20
81.900000000000006
 30
0.0
 40
1.2999999999999989
  0
CIRCLE
  5
2D9
  8
0
 10
160.19999999999999
 20
58.899999999999999
 30
0.0
 40
1.2999999999999989
  0
CIRCLE
  5
2DA
  8
0
 10
165.19999999999999
 20
58.899999999999999
 30
0.0
 40
1.2999999999999989
  0
POLYLINE
  5
2DB
  8
0
 66
     1
 10
0.0
 20
0.0
 30
0.0
  0
VERTEX
  5
4EF
  8
0
 10
110.09999999999999
 20
56.299999999999997
 30
0.0
  0
VERTEX
  5
4F0
  8
0
 10
170.30000000000001
 20
56.299999999999997
 30
0.0
  0
VERTEX
  5
4F1
  8
0
 10
170.30000000000001
 20
84.500000000000014
 30
0.0
  0
SEQEND
  5
4F2
  8
0
  0
CIRCLE
  5
2DC
  8
0
 10
95.199999999999989
 20
108.59999999999999
 30
0.0
 40
1.2999999999999989
  0
CIRCLE
  5
2DD
  8
0
 10
95.199999999999989
 20
88.599999999999994
 30
0.0
 40
1.2999999999999989
  0
CIRCLE
  5
2DE
  8
0
 10
160.19999999999999
 20
110.09999999999999
 30
0.0
 40
1.2999999999999989
  0
CIRCLE
  5
2DF
  8
0
 10
165.19999999999999
 20
110.09999999999999
 30
0.0
 40
1.2999999999999989
  0
CIRCLE
  5
2E0
  8
0
 10
160.19999999999999
 20
87.099999999999994
 30
0.0
 40
1.2999999999999989
  0
CIRCLE
  5
2E1
  8
0
 10
165.19999999999999
 20
87.099999999999994
 30
0.0
 40
1.2999999999999989
  0
POLYLINE
  5
2E2
  8
0
 66
     1
 10
0.0
 20
0.0
 30
0.0
  0
VERTEX
  5
4F3
  8
0
 10
110.09999999999999
 20
84.500000000000014
 30
0.0
  0
VERTEX
  5
4F4
  8
0
 10
170.30000000000001
 20
84.500000000000014
 30
0.0
  0
VERTEX
  5
4F5
  8
0
 10
170.30000000000001
 20
112.7
 30
0.0
  0
SEQEND
  5
4F6
  8
0
  0
LINE
  5
2E3
  8
0
 10
110.09999999999999
 20
112.7
 30
0.0
 11
170.30000000000001
 21
112.7
 31
0.0
  0
LINE
  5
2E4
  8
0
 10
90.099999999999994
 20
112.7
 30
0.0
 11
110.09999999999999
 21
112.7
 31
0.0
  0
LINE
  5
302
  8
0
 10
90.099999999999994
 20
84.500000000000014
 30
0.0
 11
110.09999999999999
 21
84.500000000000014
 31
0.0
  0
LINE
  5
303
  8
0
 10
90.099999999999994
 20
56.299999999999997
 30
0.0
 11
110.09999999999999
 21
56.299999999999997
 31
0.0
  0
LINE
  5
304
  8
0
 10
90.099999999999994
 20
28.100000000000001
 30
0.0
 11
110.09999999999999
 21
28.100000000000001
 31
0.0
  0
LINE
  5
305
  8
0
 10
90.099999999999994
 20
-0.0043083512755402
 30
0.0
 11
110.09999999999999
 21
-0.1000000000000014
 31
0.0
  0
LINE
  5
306
  8
0
 10
110.09999999999999
 20
112.7
 30
0.0
 11
110.09999999999999
 21
-0.1000000000000014
 31
0.0
  0
CIRCLE
  5
3F3
  8
0
 10
65.0
 20
110.09999999999999
 30
0.0
 40
1.5
  0
CIRCLE
  5
3F4
  8
0
 10
70.0
 20
110.09999999999999
 30
0.0
 40
1.5
  0
CIRCLE
  5
3F5
  8
0
 10
65.0
 20
87.099999999999994
 30
0.0
 40
1.5
  0
CIRCLE
  5
3F6
  8
0
 10
70.0
 20
87.099999999999994
 30
0.0
 40
1.5
  0
CIRCLE
  5
3F7
  8
0
 10
65.0
 20
81.900000000000006
 30
0.0
 40
1.5
  0
CIRCLE
  5
3F8
  8
0
 10
70.0
 20
81.900000000000006
 30
0.0
 40
1.5
  0
CIRCLE
  5
3F9
  8
0
 10
65.0
 20
58.899999999999999
 30
0.0
 40
1.5
  0
CIRCLE
  5
3FA
  8
0
 10
70.0
 20
58.899999999999999
 30
0.0
 40
1.5
  0
CIRCLE
  5
3FB
  8
0
 10
65.0
 20
53.700000000000003
 30
0.0
 40
1.5
  0
CIRCLE
  5
3FC
  8
0
 10
70.0
 20
53.700000000000003
 30
0.0
 40
1.5
  0
CIRCLE
  5
3FD
  8
0
 10
65.0
 20
30.699999999999999
 30
0.0
 40
1.5
  0
CIRCLE
  5
3FE
  8
0
 10
70.0
 20
30.699999999999999
 30
0.0
 40
1.5
  0
CIRCLE
  5
3FF
  8
0
 10
65.0
 20
25.5
 30
0.0
 40
1.5
  0
CIRCLE
  5
400
  8
0
 10
70.0
 20
25.5
 30
0.0
 40
1.5
  0
CIRCLE
  5
401
  8
0
 10
65.0
 20
2.5
 30
0.0
 40
1.5
  0
CIRCLE
  5
402
  8
0
 10
70.0
 20
2.5
 30
0.0
 40
1.5
  0
CIRCLE
  5
403
  8
0
 10
80.0
 20
110.09999999999999
 30
0.0
 40
1.5
  0
CIRCLE
  5
404
  8
0
 10
85.0
 20
110.09999999999999
 30
0.0
 40
1.5
  0
CIRCLE
  5
405
  8
0
 10
80.0
 20
87.099999999999994
 30
0.0
 40
1.5
  0
CIRCLE
  5
406
  8
0
 10
85.0
 20
87.099999999999994
 30
0.0
 40
1.5
  0
CIRCLE
  5
407
  8
0
 10
80.0
 20
81.900000000000006
 30
0.0
 40
1.5
  0
CIRCLE
  5
408
  8
0
 10
85.0
 20
81.900000000000006
 30
0.0
 40
1.5
  0
CIRCLE
  5
409
  8
0
 10
80.0
 20
58.899999999999999
 30
0.0
 40
1.5
  0
CIRCLE
  5
40A
  8
0
 10
85.0
 20
58.899999999999999
 30
0.0
 40
1.5
  0
CIRCLE
  5
40B
  8
0
 10
80.0
 20
53.700000000000003
 30
0.0
 40
1.5
  0
CIRCLE
  5
40C
  8
0
 10
85.0
 20
53.700000000000003
 30
0.0
 40
1.5
  0
CIRCLE
  5
40D
  8
0
 10
80.0
 20
30.699999999999999
 30
0.0
 40
1.5
  0
CIRCLE
  5
40E
  8
0
 10
85.0
 20
30.699999999999999
 30
0.0
 40
1.5
  0
CIRCLE
  5
40F
  8
0
 10
80.0
 20
25.5
 30
0.0
 40
1.5
  0
CIRCLE
  5
410
  8
0
 10
85.0
 20
25.5
 30
0.0
 40
1.5
  0
CIRCLE
  5
411
  8
0
 10
80.0
 20
2.5
 30
0.0
 40
1.5
  0
CIRCLE
  5
412
  8
0
 10
85.0
 20
2.5
 30
0.0
 40
1.5
  0
ENDSEC
  0
EOF
